font.ufo
<glyph name="H" format="1">
	<unicode hex="0048"/>
	<advance width="652"/>
	<outline>
		<contour>
			<point x="90" y="0" type="line"/>
			<point x="173" y="0" type="line"/>
			<point x="173" y="309" type="line"/>
			<point x="478" y="309" type="line"/>
			<point x="478" y="0" type="line"/>
			<point x="562" y="0" type="line"/>
			<point x="562" y="656" type="line"/>
			<point x="478" y="656" type="line"/>
			<point x="478" y="381" type="line"/>
			<point x="173" y="381" type="line"/>
			<point x="173" y="656" type="line"/>
			<point x="90" y="656" type="line"/>
		</contour>
		<contour>
			<point name="aboveUC" x="325" y="676" type="move"/>
		</contour>
		<contour>
			<point name="baseLC" x="259" y="0" type="move"/>
		</contour>
		<contour>
			<point name="belowLC" x="325" y="-20" type="move"/>
		</contour>
	</outline>
</glyph>
<glyph name="I" format="1">
	<unicode hex="0049"/>
	<advance width="263"/>
	<outline>
		<contour>
			<point x="90" y="0" type="line"/>
			<point x="173" y="0" type="line"/>
			<point x="173" y="656" type="line"/>
			<point x="90" y="656" type="line"/>
		</contour>
		<contour>
			<point name="aboveUC" x="131" y="676" type="move"/>
		</contour>
		<contour>
			<point name="ogonekUC" x="108" y="0" type="move"/>
		</contour>
		<contour>
			<point name="baseLC" x="132" y="0" type="move"/>
		</contour>
		<contour>
			<point name="belowLC" x="131" y="-20" type="move"/>
		</contour>
	</outline>
</glyph>
<glyph name="L" format="1">
	<unicode hex="004C"/>
	<advance width="486"/>
	<outline>
		<contour>
			<point x="90" y="0" type="line"/>
			<point x="460" y="0" type="line"/>
			<point x="460" y="71" type="line"/>
			<point x="173" y="71" type="line"/>
			<point x="173" y="656" type="line"/>
			<point x="90" y="656" type="line"/>
		</contour>
		<contour>
			<point name="aboveUC" x="133" y="676" type="move"/>
		</contour>
		<contour>
			<point name="center" x="203" y="129" type="move"/>
		</contour>
		<contour>
			<point name="baseLC" x="252" y="0" type="move"/>
		</contour>
		<contour>
			<point name="belowLC" x="289" y="-20" type="move"/>
		</contour>
	</outline>
</glyph>
<glyph name="Z" format="1">
	<unicode hex="005A"/>
	<advance width="539"/>
	<outline>
		<contour>
			<point x="45" y="0" type="line"/>
			<point x="497" y="0" type="line"/>
			<point x="497" y="71" type="line"/>
			<point x="148" y="71" type="line"/>
			<point x="494" y="607" type="line"/>
			<point x="494" y="656" type="line"/>
			<point x="76" y="656" type="line"/>
			<point x="76" y="586" type="line"/>
			<point x="390" y="586" type="line"/>
			<point x="45" y="50" type="line"/>
		</contour>
		<contour>
			<point name="aboveUC" x="280" y="676" type="move"/>
		</contour>
		<contour>
			<point name="baseLC" x="280" y="0" type="move"/>
		</contour>
		<contour>
			<point name="belowLC" x="282" y="-20" type="move"/>
		</contour>
	</outline>
</glyph>
<glyph name="i" format="1">
	<unicode hex="0069"/>
	<advance width="246"/>
	<outline>
		<contour>
			<point x="82" y="0" type="line"/>
			<point x="164" y="0" type="line"/>
			<point x="164" y="486" type="line"/>
			<point x="82" y="486" type="line"/>
		</contour>
		<contour>
			<point x="124" y="586" type="curve" smooth="yes"/>
			<point x="155" y="586"/>
			<point x="178" y="608"/>
			<point x="178" y="640" type="curve" smooth="yes"/>
			<point x="178" y="671"/>
			<point x="155" y="694"/>
			<point x="124" y="694" type="curve" smooth="yes"/>
			<point x="93" y="694"/>
			<point x="70" y="671"/>
			<point x="70" y="640" type="curve" smooth="yes"/>
			<point x="70" y="608"/>
			<point x="93" y="586"/>
		</contour>
		<contour>
			<point name="aboveUC" x="123" y="585" type="move"/>
		</contour>
		<contour>
			<point name="ogonekLC" x="152" y="0" type="move"/>
		</contour>
		<contour>
			<point name="baseLC" x="123" y="0" type="move"/>
		</contour>
		<contour>
			<point name="belowLC" x="123" y="-20" type="move"/>
		</contour>
	</outline>
</glyph>
<glyph name="z" format="1">
	<unicode hex="007A"/>
	<advance width="425"/>
	<outline>
		<contour>
			<point x="31" y="0" type="line"/>
			<point x="399" y="0" type="line"/>
			<point x="399" y="67" type="line"/>
			<point x="135" y="67" type="line"/>
			<point x="391" y="442" type="line"/>
			<point x="391" y="486" type="line"/>
			<point x="59" y="486" type="line"/>
			<point x="59" y="419" type="line"/>
			<point x="287" y="419" type="line"/>
			<point x="31" y="44" type="line"/>
		</contour>
		<contour>
			<point name="aboveLC" x="232" y="507" type="move"/>
		</contour>
		<contour>
			<point name="baseLC" x="217" y="0" type="move"/>
		</contour>
		<contour>
			<point name="belowLC" x="227" y="-20" type="move"/>
		</contour>
	</outline>
</glyph>
<glyph name="Eth" format="1">
	<unicode hex="00D0"/>
	<advance width="638"/>
	<outline>
		<contour>
			<point x="33" y="321" type="line"/>
			<point x="344" y="321" type="line"/>
			<point x="344" y="368" type="line"/>
			<point x="114" y="368" type="line"/>
			<point x="33" y="364" type="line"/>
		</contour>
		<component base="D" xOffset="22"/>
		<contour>
			<point name="aboveUC" x="319" y="676" type="move"/>
		</contour>
		<contour>
			<point name="belowLC" x="319" y="-20" type="move"/>
		</contour>
	</outline>
</glyph>
<glyph name="Odieresis" format="1">
	<unicode hex="00D6"/>
	<advance width="664"/>
	<outline>
		<component base="O"/>
		<component base="dieresiscmb.cap" xOffset="332"/>
		<contour>
			<point name="ogonekUC" x="332" y="0" type="move"/>
		</contour>
	</outline>
</glyph>
<glyph name="aacute" format="1">
	<unicode hex="00E1"/>
	<advance width="504"/>
	<outline>
		<component base="a"/>
		<component base="acutecmb" xOffset="271"/>
		<contour>
			<point name="ogonekLC" x="391" y="0" type="move"/>
		</contour>
	</outline>
</glyph>
<glyph name="odieresis" format="1">
	<unicode hex="00F6"/>
	<advance width="542"/>
	<outline>
		<component base="o"/>
		<component base="dieresiscmb" xOffset="271"/>
		<contour>
			<point name="ogonekLC" x="271" y="0" type="move"/>
		</contour>
	</outline>
</glyph>
<glyph name="lmiddletilde" format="1">
	<unicode hex="026B"/>
	<advance width="255"/>
	<outline>
		<component base="l"/>
		<component base="tildeoverlaycmb" xOffset="126" yOffset="-111"/>
		<contour>
			<point name="aboveUC" x="123" y="730" type="move"/>
		</contour>
		<contour>
			<point name="aboveLC" x="150" y="653" type="move"/>
		</contour>
		<contour>
			<point name="belowLC" x="147" y="-20" type="move"/>
		</contour>
	</outline>
</glyph>
<glyph name="dezh" format="1">
	<unicode hex="02A4"/>
	<advance width="885"/>
	<outline>
		<contour>
			<point x="427" y="419" type="line"/>
			<point x="568" y="419" type="line"/>
			<point x="568" y="486" type="line"/>
			<point x="427" y="486" type="line"/>
		</contour>
		<component base="d"/>
		<component base="ezh" xOffset="461"/>
		<contour>
			<point name="aboveUC" x="441" y="730" type="move"/>
		</contour>
		<contour>
			<point name="belowLC" x="360" y="-20" type="move"/>
		</contour>
	</outline>
</glyph>
<glyph name="tesh" format="1">
	<unicode hex="02A7"/>
	<advance width="444"/>
	<outline>
		<contour>
			<point x="235" y="-12" type="curve" smooth="yes"/>
			<point x="265" y="-12"/>
			<point x="298" y="-3"/>
			<point x="325" y="6" type="curve"/>
			<point x="309" y="68" type="line"/>
			<point x="293" y="62"/>
			<point x="271" y="55"/>
			<point x="254" y="55" type="curve" smooth="yes"/>
			<point x="198" y="55"/>
			<point x="179" y="89"/>
			<point x="179" y="149" type="curve" smooth="yes"/>
			<point x="179" y="419" type="line"/>
			<point x="310" y="419" type="line"/>
			<point x="310" y="486" type="line"/>
			<point x="179" y="486" type="line"/>
			<point x="179" y="622" type="line"/>
			<point x="110" y="622" type="line"/>
			<point x="100" y="486" type="line"/>
			<point x="24" y="481" type="line"/>
			<point x="24" y="419" type="line"/>
			<point x="96" y="419" type="line"/>
			<point x="96" y="150" type="line" smooth="yes"/>
			<point x="96" y="54"/>
			<point x="131" y="-12"/>
		</contour>
		<contour>
			<point x="368" y="-217" type="curve" smooth="yes"/>
			<point x="465" y="-217"/>
			<point x="501" y="-154"/>
			<point x="501" y="-55" type="curve" smooth="yes"/>
			<point x="501" y="563" type="line" smooth="yes"/>
			<point x="501" y="622"/>
			<point x="515" y="659"/>
			<point x="571" y="659" type="curve" smooth="yes"/>
			<point x="585" y="659"/>
			<point x="597" y="654"/>
			<point x="607" y="650" type="curve"/>
			<point x="623" y="713" type="line"/>
			<point x="608" y="720"/>
			<point x="588" y="726"/>
			<point x="562" y="726" type="curve" smooth="yes"/>
			<point x="458" y="726"/>
			<point x="419" y="663"/>
			<point x="419" y="564" type="curve" smooth="yes"/>
			<point x="419" y="-55" type="line"/>
			<point x="419" y="-114"/>
			<point x="407" y="-150"/>
			<point x="359" y="-150" type="curve" smooth="yes"/>
			<point x="342" y="-150"/>
			<point x="325" y="-146"/>
			<point x="313" y="-142" type="curve"/>
			<point x="296" y="-204" type="line"/>
			<point x="313" y="-211"/>
			<point x="338" y="-217"/>
		</contour>
		<contour>
			<point name="aboveUC" x="222" y="730" type="move"/>
		</contour>
		<contour>
			<point name="belowLC" x="222" y="-20" type="move"/>
		</contour>
	</outline>
</glyph>
<glyph name="heAlef" format="1">
	<unicode hex="05D0"/>
	<advance width="655"/>
	<outline>
		<contour>
			<point x="462" y="170" type="line"/>
			<point x="542" y="276"/>
			<point x="588" y="382"/>
			<point x="588" y="464" type="curve" smooth="yes"/>
			<point x="588" y="538"/>
			<point x="549" y="566"/>
			<point x="467" y="566" type="curve" smooth="yes"/>
			<point x="447" y="566"/>
			<point x="423" y="566"/>
			<point x="391" y="560" type="curve"/>
			<point x="387" y="476" type="line"/>
			<point x="421" y="482"/>
			<point x="443" y="482"/>
			<point x="463" y="482" type="curve" smooth="yes"/>
			<point x="499" y="482"/>
			<point x="516" y="470"/>
			<point x="516" y="433" type="curve" smooth="yes"/>
			<point x="516" y="371"/>
			<point x="475" y="288"/>
			<point x="406" y="201" type="curve"/>
		</contour>
		<contour>
			<point x="93" y="0" type="curve"/>
			<point x="169" y="0" type="line"/>
			<point x="167" y="29"/>
			<point x="165" y="57"/>
			<point x="165" y="82" type="curve" smooth="yes"/>
			<point x="165" y="232"/>
			<point x="193" y="324"/>
			<point x="238" y="417" type="curve"/>
			<point x="177" y="439" type="line"/>
			<point x="123" y="345"/>
			<point x="91" y="246"/>
			<point x="91" y="84" type="curve" smooth="yes"/>
			<point x="91" y="56"/>
			<point x="91" y="29"/>
		</contour>
		<contour>
			<point x="546" y="-12" type="curve"/>
			<point x="613" y="29" type="line"/>
			<point x="449" y="196"/>
			<point x="275" y="393"/>
			<point x="160" y="566" type="curve"/>
			<point x="93" y="525" type="line"/>
			<point x="210" y="346"/>
			<point x="386" y="149"/>
		</contour>
	</outline>
</glyph>
<glyph name="heBet" format="1">
	<unicode hex="05D1"/>
	<advance width="578"/>
	<outline>
		<contour>
			<point x="480" y="20" type="line"/>
			<point x="480" y="361" type="line"/>
			<point x="480" y="502"/>
			<point x="411" y="554"/>
			<point x="306" y="554" type="curve"/>
			<point x="87" y="554" type="line"/>
			<point x="70" y="472" type="line"/>
			<point x="267" y="472" type="line"/>
			<point x="354" y="472"/>
			<point x="408" y="436"/>
			<point x="408" y="320" type="curve"/>
			<point x="408" y="20" type="line"/>
		</contour>
		<contour>
			<point x="543" y="0" type="curve"/>
			<point x="560" y="82" type="line"/>
			<point x="376" y="82"/>
			<point x="157" y="78"/>
			<point x="61" y="70" type="curve"/>
			<point x="44" y="-12" type="line"/>
			<point x="140" y="-4"/>
			<point x="375" y="0"/>
		</contour>
	</outline>
</glyph>
<glyph name="heGimel" format="1">
	<unicode hex="05D2"/>
	<advance width="403"/>
	<outline>
		<contour>
			<point x="263" y="0" type="line"/>
			<point x="335" y="0" type="line"/>
			<point x="300" y="427" type="line"/>
			<point x="294" y="510"/>
			<point x="276" y="542"/>
			<point x="213" y="551" type="curve" smooth="yes"/>
			<point x="107" y="566" type="line"/>
			<point x="90" y="484" type="line"/>
			<point x="170" y="474" type="line" smooth="yes"/>
			<point x="221" y="468"/>
			<point x="228" y="452"/>
			<point x="234" y="382" type="curve"/>
		</contour>
		<contour>
			<point x="47" y="-8" type="line"/>
			<point x="162" y="-2"/>
			<point x="258" y="83"/>
			<point x="265" y="157" type="curve"/>
			<point x="251" y="215" type="line"/>
			<point x="238" y="138"/>
			<point x="154" y="85"/>
			<point x="61" y="78" type="curve"/>
		</contour>
	</outline>
</glyph>
<glyph name="heDalet" format="1">
	<unicode hex="05D3"/>
	<advance width="553"/>
	<outline>
		<contour>
			<point x="23" y="472" type="line"/>
			<point x="499" y="472" type="line"/>
			<point x="516" y="554" type="line"/>
			<point x="40" y="554" type="line"/>
		</contour>
		<contour>
			<point x="334" y="0" type="line"/>
			<point x="406" y="0" type="line"/>
			<point x="406" y="323" type="line"/>
			<point x="406" y="394"/>
			<point x="419" y="443"/>
			<point x="441" y="474" type="curve"/>
			<point x="374" y="474" type="line"/>
			<point x="351" y="442"/>
			<point x="334" y="395"/>
			<point x="334" y="317" type="curve"/>
		</contour>
	</outline>
</glyph>
<glyph name="heHe" format="1">
	<unicode hex="05D4"/>
	<advance width="664"/>
	<outline>
		<contour>
			<point x="497" y="0" type="line"/>
			<point x="569" y="0" type="line"/>
			<point x="569" y="361" type="line" smooth="yes"/>
			<point x="569" y="502"/>
			<point x="500" y="553"/>
			<point x="397" y="553" type="curve"/>
			<point x="106" y="553" type="line"/>
			<point x="89" y="471" type="line"/>
			<point x="362" y="471" type="line"/>
			<point x="443" y="471"/>
			<point x="497" y="435"/>
			<point x="497" y="320" type="curve" smooth="yes"/>
		</contour>
		<contour>
			<point x="107" y="0" type="line"/>
			<point x="179" y="0" type="line"/>
			<point x="179" y="329" type="line"/>
			<point x="107" y="329" type="line"/>
		</contour>
	</outline>
</glyph>
<glyph name="heVav" format="1">
	<unicode hex="05D5"/>
	<advance width="335"/>
	<outline>
		<contour>
			<point x="169" y="0" type="line"/>
			<point x="241" y="0" type="line"/>
			<point x="241" y="427" type="line" smooth="yes"/>
			<point x="241" y="509"/>
			<point x="214" y="542"/>
			<point x="126" y="554" type="curve" smooth="yes"/>
			<point x="34" y="566" type="line"/>
			<point x="17" y="484" type="line"/>
			<point x="99" y="472" type="line" smooth="yes"/>
			<point x="151" y="464"/>
			<point x="169" y="446"/>
			<point x="169" y="383" type="curve" smooth="yes"/>
		</contour>
	</outline>
</glyph>
<glyph name="heZayin" format="1">
	<unicode hex="05D6"/>
	<advance width="381"/>
	<outline>
		<contour>
			<point x="326" y="480" type="curve"/>
			<point x="343" y="555" type="line"/>
			<point x="233" y="555"/>
			<point x="116" y="555"/>
			<point x="38" y="566" type="curve"/>
			<point x="21" y="490" type="line"/>
			<point x="101" y="479"/>
			<point x="215" y="480"/>
		</contour>
		<contour>
			<point x="195" y="0" type="line"/>
			<point x="270" y="0" type="line"/>
			<point x="232" y="206" type="line" smooth="yes"/>
			<point x="219" y="278"/>
			<point x="208" y="334"/>
			<point x="208" y="378" type="curve" smooth="yes"/>
			<point x="208" y="433"/>
			<point x="220" y="466"/>
			<point x="248" y="482" type="curve"/>
			<point x="174" y="482" type="line"/>
			<point x="148" y="466"/>
			<point x="136" y="431"/>
			<point x="136" y="374" type="curve" smooth="yes"/>
			<point x="136" y="332"/>
			<point x="145" y="278"/>
			<point x="158" y="206" type="curve" smooth="yes"/>
		</contour>
	</outline>
</glyph>
<glyph name="heHet" format="1">
	<unicode hex="05D7"/>
	<advance width="681"/>
	<outline>
		<contour>
			<point x="515" y="0" type="line"/>
			<point x="587" y="0" type="line"/>
			<point x="587" y="361" type="line" smooth="yes"/>
			<point x="587" y="502"/>
			<point x="519" y="554"/>
			<point x="412" y="554" type="curve"/>
			<point x="71" y="554" type="line"/>
			<point x="54" y="472" type="line"/>
			<point x="377" y="472" type="line"/>
			<point x="461" y="472"/>
			<point x="515" y="435"/>
			<point x="515" y="320" type="curve" smooth="yes"/>
		</contour>
		<contour>
			<point x="107" y="0" type="line"/>
			<point x="179" y="0" type="line"/>
			<point x="179" y="310" type="line"/>
			<point x="179" y="381"/>
			<point x="192" y="442"/>
			<point x="214" y="474" type="curve"/>
			<point x="147" y="474" type="line"/>
			<point x="124" y="441"/>
			<point x="107" y="382"/>
			<point x="107" y="305" type="curve"/>
		</contour>
	</outline>
</glyph>
<glyph name="heTet" format="1">
	<unicode hex="05D8"/>
	<advance width="616"/>
	<outline>
		<contour>
			<point x="174" y="-12" type="line"/>
			<point x="383" y="7"/>
			<point x="566" y="192"/>
			<point x="566" y="413" type="curve" smooth="yes"/>
			<point x="566" y="528"/>
			<point x="515" y="566"/>
			<point x="411" y="566" type="curve" smooth="yes"/>
			<point x="393" y="566"/>
			<point x="368" y="564"/>
			<point x="343" y="560" type="curve"/>
			<point x="328" y="476" type="line"/>
			<point x="354" y="480"/>
			<point x="375" y="482"/>
			<point x="392" y="482" type="curve" smooth="yes"/>
			<point x="456" y="482"/>
			<point x="486" y="458"/>
			<point x="486" y="384" type="curve" smooth="yes"/>
			<point x="486" y="224"/>
			<point x="365" y="97"/>
			<point x="224" y="83" type="curve"/>
			<point x="107" y="560" type="line"/>
			<point x="35" y="543" type="line"/>
		</contour>
	</outline>
</glyph>
<glyph name="heYod" format="1">
	<unicode hex="05D9"/>
	<advance width="300"/>
	<outline>
		<contour>
			<point x="161" y="200" type="line"/>
			<point x="206" y="279"/>
			<point x="241" y="369"/>
			<point x="241" y="435" type="curve" smooth="yes"/>
			<point x="241" y="517"/>
			<point x="214" y="542"/>
			<point x="137" y="553" type="curve" smooth="yes"/>
			<point x="34" y="566" type="line"/>
			<point x="17" y="484" type="line"/>
			<point x="101" y="473" type="line" smooth="yes"/>
			<point x="158" y="466"/>
			<point x="169" y="452"/>
			<point x="169" y="407" type="curve" smooth="yes"/>
			<point x="169" y="359"/>
			<point x="136" y="288"/>
			<point x="96" y="227" type="curve"/>
		</contour>
	</outline>
</glyph>
<glyph name="heKafFin" format="1">
	<unicode hex="05DA"/>
	<advance width="555"/>
	<outline>
		<contour>
			<point x="388" y="-200" type="line"/>
			<point x="460" y="-200" type="line"/>
			<point x="460" y="361" type="line"/>
			<point x="460" y="502"/>
			<point x="391" y="554"/>
			<point x="287" y="554" type="curve" smooth="yes"/>
			<point x="39" y="554" type="line"/>
			<point x="24" y="472" type="line"/>
			<point x="252" y="472" type="line" smooth="yes"/>
			<point x="333" y="472"/>
			<point x="388" y="436"/>
			<point x="388" y="320" type="curve"/>
		</contour>
	</outline>
</glyph>
<glyph name="heKaf" format="1">
	<unicode hex="05DB"/>
	<advance width="585"/>
	<outline>
		<contour>
			<point x="44" y="-12" type="line"/>
			<point x="166" y="-1"/>
			<point x="304" y="0"/>
			<point x="491" y="0" type="curve"/>
			<point x="491" y="301" type="line"/>
			<point x="491" y="475"/>
			<point x="399" y="554"/>
			<point x="248" y="554" type="curve" smooth="yes"/>
			<point x="87" y="554" type="line"/>
			<point x="70" y="472" type="line"/>
			<point x="219" y="472" type="line" smooth="yes"/>
			<point x="354" y="472"/>
			<point x="419" y="410"/>
			<point x="419" y="263" type="curve"/>
			<point x="419" y="79" type="line"/>
			<point x="276" y="77"/>
			<point x="155" y="76"/>
			<point x="61" y="67" type="curve"/>
		</contour>
	</outline>
</glyph>
<glyph name="heLamed" format="1">
	<unicode hex="05DC"/>
	<advance width="501"/>
	<outline>
		<contour>
			<point x="123" y="-12" type="line"/>
			<point x="379" y="102"/>
			<point x="451" y="263"/>
			<point x="451" y="408" type="curve" smooth="yes"/>
			<point x="451" y="510"/>
			<point x="408" y="554"/>
			<point x="277" y="554" type="curve" smooth="yes"/>
			<point x="120" y="554" type="line"/>
			<point x="120" y="728" type="line"/>
			<point x="48" y="728" type="line"/>
			<point x="48" y="472" type="line"/>
			<point x="260" y="472" type="line" smooth="yes"/>
			<point x="340" y="472"/>
			<point x="371" y="452"/>
			<point x="371" y="379" type="curve" smooth="yes"/>
			<point x="371" y="274"/>
			<point x="310" y="157"/>
			<point x="92" y="69" type="curve"/>
		</contour>
	</outline>
</glyph>
<glyph name="heMemFin" format="1">
	<unicode hex="05DD"/>
	<advance width="675"/>
	<outline>
		<contour>
			<point x="145" y="0" type="line"/>
			<point x="581" y="0" type="line"/>
			<point x="581" y="361" type="line" smooth="yes"/>
			<point x="581" y="503"/>
			<point x="513" y="553"/>
			<point x="408" y="553" type="curve"/>
			<point x="71" y="553" type="line"/>
			<point x="54" y="471" type="line"/>
			<point x="373" y="471" type="line"/>
			<point x="454" y="471"/>
			<point x="509" y="435"/>
			<point x="509" y="320" type="curve" smooth="yes"/>
			<point x="509" y="82" type="line"/>
			<point x="145" y="82" type="line"/>
		</contour>
		<contour>
			<point x="107" y="0" type="line"/>
			<point x="179" y="0" type="line"/>
			<point x="179" y="310" type="line"/>
			<point x="179" y="381"/>
			<point x="192" y="442"/>
			<point x="214" y="474" type="curve"/>
			<point x="147" y="474" type="line"/>
			<point x="124" y="441"/>
			<point x="107" y="382"/>
			<point x="107" y="305" type="curve"/>
		</contour>
	</outline>
</glyph>
<glyph name="heMem" format="1">
	<unicode hex="05DE"/>
	<advance width="719"/>
	<outline>
		<contour>
			<point x="305" y="-12" type="line"/>
			<point x="387" y="-1"/>
			<point x="501" y="0"/>
			<point x="617" y="0" type="curve"/>
			<point x="621" y="68"/>
			<point x="625" y="144"/>
			<point x="625" y="200" type="curve" smooth="yes"/>
			<point x="625" y="473"/>
			<point x="546" y="566"/>
			<point x="414" y="566" type="curve" smooth="yes"/>
			<point x="221" y="566"/>
			<point x="100" y="290"/>
			<point x="100" y="0" type="curve"/>
			<point x="172" y="0" type="line"/>
			<point x="172" y="253"/>
			<point x="268" y="482"/>
			<point x="405" y="482" type="curve" smooth="yes"/>
			<point x="494" y="482"/>
			<point x="549" y="414"/>
			<point x="549" y="200" type="curve" smooth="yes"/>
			<point x="549" y="161"/>
			<point x="547" y="123"/>
			<point x="544" y="82" type="curve"/>
			<point x="468" y="82"/>
			<point x="378" y="80"/>
			<point x="311" y="72" type="curve"/>
		</contour>
		<contour>
			<point x="167" y="346" type="curve"/>
			<point x="229" y="376" type="line"/>
			<point x="218" y="434"/>
			<point x="182" y="514"/>
			<point x="140" y="565" type="curve"/>
			<point x="71" y="535" type="line"/>
			<point x="117" y="483"/>
			<point x="160" y="391"/>
		</contour>
	</outline>
</glyph>
<glyph name="heNunFin" format="1">
	<unicode hex="05DF"/>
	<advance width="343"/>
	<outline>
		<contour>
			<point x="176" y="-200" type="line"/>
			<point x="248" y="-200" type="line"/>
			<point x="248" y="427" type="line" smooth="yes"/>
			<point x="248" y="509"/>
			<point x="219" y="542"/>
			<point x="126" y="554" type="curve" smooth="yes"/>
			<point x="34" y="566" type="line"/>
			<point x="17" y="484" type="line"/>
			<point x="99" y="472" type="line" smooth="yes"/>
			<point x="157" y="463"/>
			<point x="176" y="446"/>
			<point x="176" y="383" type="curve" smooth="yes"/>
		</contour>
	</outline>
</glyph>
<glyph name="heNun" format="1">
	<unicode hex="05E0"/>
	<advance width="421"/>
	<outline>
		<contour>
			<point x="48" y="-12" type="line"/>
			<point x="141" y="-2"/>
			<point x="234" y="0"/>
			<point x="327" y="0" type="curve"/>
			<point x="327" y="423" type="line"/>
			<point x="326" y="503"/>
			<point x="301" y="532"/>
			<point x="217" y="547" type="curve"/>
			<point x="90" y="566" type="line"/>
			<point x="73" y="484" type="line"/>
			<point x="187" y="466" type="line" smooth="yes"/>
			<point x="239" y="458"/>
			<point x="255" y="440"/>
			<point x="255" y="378" type="curve" smooth="yes"/>
			<point x="255" y="82" type="line"/>
			<point x="186" y="81"/>
			<point x="119" y="78"/>
			<point x="54" y="70" type="curve"/>
		</contour>
	</outline>
</glyph>
<glyph name="heSamekh" format="1">
	<unicode hex="05E1"/>
	<advance width="666"/>
	<outline>
		<contour>
			<point x="236" y="-12" type="curve"/>
			<point x="439" y="7"/>
			<point x="615" y="192"/>
			<point x="615" y="414" type="curve" smooth="yes"/>
			<point x="615" y="515"/>
			<point x="573" y="554"/>
			<point x="441" y="554" type="curve" smooth="yes"/>
			<point x="41" y="554" type="line"/>
			<point x="24" y="472" type="line"/>
			<point x="424" y="472" type="line" smooth="yes"/>
			<point x="505" y="472"/>
			<point x="536" y="454"/>
			<point x="536" y="384" type="curve" smooth="yes"/>
			<point x="536" y="222"/>
			<point x="421" y="98"/>
			<point x="280" y="84" type="curve"/>
			<point x="234" y="174"/>
			<point x="188" y="309"/>
			<point x="188" y="375" type="curve" smooth="yes"/>
			<point x="188" y="423"/>
			<point x="206" y="457"/>
			<point x="225" y="489" type="curve"/>
			<point x="154" y="496" type="line"/>
			<point x="136" y="467"/>
			<point x="112" y="426"/>
			<point x="112" y="371" type="curve" smooth="yes"/>
			<point x="112" y="297"/>
			<point x="175" y="114"/>
		</contour>
	</outline>
</glyph>
<glyph name="heAyin" format="1">
	<unicode hex="05E2"/>
	<advance width="633"/>
	<outline>
		<contour>
			<point x="44" y="-32" type="line"/>
			<point x="92" y="-28"/>
			<point x="163" y="-21"/>
			<point x="242" y="-2" type="curve" smooth="yes"/>
			<point x="444" y="47"/>
			<point x="583" y="214"/>
			<point x="583" y="406" type="curve" smooth="yes"/>
			<point x="583" y="534"/>
			<point x="531" y="566"/>
			<point x="419" y="566" type="curve" smooth="yes"/>
			<point x="403" y="566"/>
			<point x="381" y="564"/>
			<point x="359" y="560" type="curve"/>
			<point x="344" y="476" type="line"/>
			<point x="368" y="480"/>
			<point x="388" y="482"/>
			<point x="404" y="482" type="curve" smooth="yes"/>
			<point x="472" y="482"/>
			<point x="503" y="461"/>
			<point x="503" y="384" type="curve" smooth="yes"/>
			<point x="503" y="238"/>
			<point x="403" y="117"/>
			<point x="253" y="78" type="curve" smooth="yes"/>
			<point x="182" y="60"/>
			<point x="109" y="55"/>
			<point x="61" y="50" type="curve"/>
		</contour>
		<contour>
			<point x="219" y="16" type="curve"/>
			<point x="289" y="29" type="line"/>
			<point x="265" y="216"/>
			<point x="196" y="429"/>
			<point x="136" y="560" type="curve"/>
			<point x="62" y="543" type="line"/>
			<point x="124" y="408"/>
			<point x="196" y="199"/>
		</contour>
	</outline>
</glyph>
<glyph name="hePeFin" format="1">
	<unicode hex="05E3"/>
	<advance width="576"/>
	<outline>
		<contour>
			<point x="409" y="-200" type="line"/>
			<point x="482" y="-200" type="line"/>
			<point x="482" y="293" type="line" smooth="yes"/>
			<point x="482" y="460"/>
			<point x="436" y="521"/>
			<point x="310" y="537" type="curve" smooth="yes"/>
			<point x="94" y="566" type="line"/>
			<point x="61" y="430"/>
			<point x="54" y="403"/>
			<point x="54" y="360" type="curve" smooth="yes"/>
			<point x="54" y="259"/>
			<point x="107" y="219"/>
			<point x="223" y="201" type="curve"/>
			<point x="246" y="281" type="line"/>
			<point x="160" y="293"/>
			<point x="126" y="319"/>
			<point x="126" y="368" type="curve" smooth="yes"/>
			<point x="126" y="395"/>
			<point x="131" y="410"/>
			<point x="148" y="480" type="curve"/>
			<point x="285" y="461" type="line" smooth="yes"/>
			<point x="376" y="449"/>
			<point x="409" y="408"/>
			<point x="409" y="289" type="curve"/>
		</contour>
	</outline>
</glyph>
<glyph name="hePe" format="1">
	<unicode hex="05E4"/>
	<advance width="607"/>
	<outline>
		<contour>
			<point x="48" y="-12" type="line"/>
			<point x="170" y="0"/>
			<point x="326" y="0"/>
			<point x="513" y="0" type="curve"/>
			<point x="513" y="294" type="line" smooth="yes"/>
			<point x="513" y="461"/>
			<point x="461" y="521"/>
			<point x="319" y="538" type="curve" smooth="yes"/>
			<point x="94" y="566" type="line"/>
			<point x="61" y="430"/>
			<point x="54" y="403"/>
			<point x="54" y="360" type="curve" smooth="yes"/>
			<point x="54" y="272"/>
			<point x="108" y="234"/>
			<point x="223" y="215" type="curve"/>
			<point x="246" y="296" type="line"/>
			<point x="160" y="308"/>
			<point x="126" y="330"/>
			<point x="126" y="371" type="curve" smooth="yes"/>
			<point x="126" y="397"/>
			<point x="130" y="411"/>
			<point x="146" y="480" type="curve"/>
			<point x="282" y="463" type="line" smooth="yes"/>
			<point x="398" y="447"/>
			<point x="441" y="409"/>
			<point x="441" y="291" type="curve" smooth="yes"/>
			<point x="441" y="82" type="line"/>
			<point x="292" y="80"/>
			<point x="150" y="81"/>
			<point x="54" y="70" type="curve"/>
		</contour>
	</outline>
</glyph>
<glyph name="heTsadi" format="1">
	<unicode hex="05E6"/>
	<advance width="579"/>
	<outline>
		<contour>
			<point x="381" y="185" type="line"/>
			<point x="458" y="282"/>
			<point x="507" y="379"/>
			<point x="507" y="464" type="curve" smooth="yes"/>
			<point x="507" y="538"/>
			<point x="468" y="566"/>
			<point x="386" y="566" type="curve" smooth="yes"/>
			<point x="366" y="566"/>
			<point x="342" y="566"/>
			<point x="310" y="560" type="curve"/>
			<point x="306" y="476" type="line"/>
			<point x="340" y="482"/>
			<point x="362" y="482"/>
			<point x="382" y="482" type="curve" smooth="yes"/>
			<point x="418" y="482"/>
			<point x="434" y="470"/>
			<point x="434" y="433" type="curve" smooth="yes"/>
			<point x="434" y="374"/>
			<point x="398" y="296"/>
			<point x="324" y="215" type="curve"/>
		</contour>
		<contour>
			<point x="48" y="-12" type="line"/>
			<point x="172" y="-1"/>
			<point x="322" y="0"/>
			<point x="505" y="0" type="curve"/>
			<point x="520" y="82" type="line"/>
			<point x="333" y="80"/>
			<point x="176" y="84"/>
			<point x="54" y="70" type="curve"/>
		</contour>
		<contour>
			<point x="458" y="36" type="curve"/>
			<point x="520" y="82" type="line"/>
			<point x="350" y="227"/>
			<point x="190" y="402"/>
			<point x="85" y="566" type="curve"/>
			<point x="18" y="525" type="line"/>
			<point x="126" y="354"/>
			<point x="295" y="170"/>
		</contour>
	</outline>
</glyph>
<glyph name="heQof" format="1">
	<unicode hex="05E7"/>
	<advance width="611"/>
	<outline>
		<contour>
			<point x="269" y="-12" type="line"/>
			<point x="495" y="106"/>
			<point x="560" y="263"/>
			<point x="560" y="408" type="curve" smooth="yes"/>
			<point x="560" y="510"/>
			<point x="517" y="554"/>
			<point x="386" y="554" type="curve"/>
			<point x="106" y="554" type="line"/>
			<point x="89" y="472" type="line"/>
			<point x="369" y="472" type="line"/>
			<point x="450" y="472"/>
			<point x="481" y="452"/>
			<point x="481" y="379" type="curve" smooth="yes"/>
			<point x="481" y="274"/>
			<point x="426" y="165"/>
			<point x="239" y="69" type="curve"/>
		</contour>
		<contour>
			<point x="107" y="-200" type="line"/>
			<point x="179" y="-200" type="line"/>
			<point x="179" y="329" type="line"/>
			<point x="107" y="329" type="line"/>
		</contour>
	</outline>
</glyph>
<glyph name="heResh" format="1">
	<unicode hex="05E8"/>
	<advance width="536"/>
	<outline>
		<contour>
			<point x="369" y="0" type="line"/>
			<point x="442" y="0" type="line"/>
			<point x="442" y="361" type="line" smooth="yes"/>
			<point x="442" y="502"/>
			<point x="372" y="553"/>
			<point x="269" y="553" type="curve"/>
			<point x="40" y="553" type="line"/>
			<point x="23" y="471" type="line"/>
			<point x="234" y="471" type="line"/>
			<point x="315" y="471"/>
			<point x="369" y="435"/>
			<point x="369" y="320" type="curve" smooth="yes"/>
		</contour>
	</outline>
</glyph>
<glyph name="heShin" format="1">
	<unicode hex="05E9"/>
	<advance width="723"/>
	<outline>
		<contour>
			<point x="187" y="-12" type="line"/>
			<point x="477" y="8"/>
			<point x="685" y="201"/>
			<point x="685" y="439" type="curve" smooth="yes"/>
			<point x="685" y="527"/>
			<point x="652" y="566"/>
			<point x="574" y="566" type="curve" smooth="yes"/>
			<point x="555" y="566"/>
			<point x="531" y="565"/>
			<point x="506" y="560" type="curve"/>
			<point x="491" y="476" type="line"/>
			<point x="512" y="479"/>
			<point x="530" y="482"/>
			<point x="544" y="482" type="curve" smooth="yes"/>
			<point x="586" y="482"/>
			<point x="605" y="467"/>
			<point x="605" y="416" type="curve" smooth="yes"/>
			<point x="605" y="233"/>
			<point x="450" y="97"/>
			<point x="236" y="80" type="curve"/>
			<point x="107" y="560" type="line"/>
			<point x="35" y="543" type="line"/>
		</contour>
		<contour>
			<point x="308" y="199" type="line"/>
			<point x="376" y="295"/>
			<point x="433" y="392"/>
			<point x="433" y="453" type="curve" smooth="yes"/>
			<point x="433" y="530"/>
			<point x="406" y="566"/>
			<point x="339" y="566" type="curve" smooth="yes"/>
			<point x="321" y="566"/>
			<point x="300" y="565"/>
			<point x="274" y="560" type="curve"/>
			<point x="259" y="476" type="line"/>
			<point x="281" y="479"/>
			<point x="296" y="482"/>
			<point x="309" y="482" type="curve" smooth="yes"/>
			<point x="339" y="482"/>
			<point x="354" y="469"/>
			<point x="354" y="431" type="curve" smooth="yes"/>
			<point x="354" y="374"/>
			<point x="306" y="306"/>
			<point x="244" y="223" type="curve"/>
		</contour>
	</outline>
</glyph>
<glyph name="heTav" format="1">
	<unicode hex="05EA"/>
	<advance width="694"/>
	<outline>
		<contour>
			<point x="48" y="-12" type="line"/>
			<point x="105" y="-4"/>
			<point x="207" y="0"/>
			<point x="242" y="0" type="curve"/>
			<point x="234" y="130"/>
			<point x="228" y="240"/>
			<point x="228" y="332" type="curve" smooth="yes"/>
			<point x="228" y="412"/>
			<point x="244" y="483"/>
			<point x="268" y="518" type="curve"/>
			<point x="196" y="518" type="line"/>
			<point x="173" y="483"/>
			<point x="156" y="414"/>
			<point x="156" y="334" type="curve" smooth="yes"/>
			<point x="156" y="266"/>
			<point x="162" y="182"/>
			<point x="168" y="82" type="curve"/>
			<point x="152" y="82"/>
			<point x="97" y="77"/>
			<point x="65" y="70" type="curve"/>
		</contour>
		<contour>
			<point x="559" y="0" type="line"/>
			<point x="631" y="0" type="line"/>
			<point x="631" y="361" type="line" smooth="yes"/>
			<point x="631" y="503"/>
			<point x="563" y="554"/>
			<point x="458" y="554" type="curve"/>
			<point x="93" y="554" type="line"/>
			<point x="76" y="472" type="line"/>
			<point x="423" y="472" type="line"/>
			<point x="504" y="472"/>
			<point x="559" y="435"/>
			<point x="559" y="320" type="curve" smooth="yes"/>
		</contour>
	</outline>
</glyph>
<glyph name="guillemotleft.lat" format="1">
	<advance width="429"/>
	<outline>
		<contour>
			<point x="181" y="66" type="line"/>
			<point x="217" y="94" type="line"/>
			<point x="99" y="252" type="line"/>
			<point x="217" y="408" type="line"/>
			<point x="181" y="438" type="line"/>
			<point x="45" y="283" type="line"/>
			<point x="45" y="221" type="line"/>
		</contour>
		<contour>
			<point x="340" y="66" type="line"/>
			<point x="375" y="94" type="line"/>
			<point x="257" y="252" type="line"/>
			<point x="375" y="408" type="line"/>
			<point x="340" y="438" type="line"/>
			<point x="203" y="283" type="line"/>
			<point x="203" y="221" type="line"/>
		</contour>
	</outline>
</glyph>
<glyph name="periodcentered.lat" format="1">
	<advance width="249"/>
	<outline>
		<contour>
			<point x="125" y="259" type="curve" smooth="yes"/>
			<point x="157" y="259"/>
			<point x="184" y="285"/>
			<point x="184" y="321" type="curve" smooth="yes"/>
			<point x="184" y="359"/>
			<point x="157" y="385"/>
			<point x="125" y="385" type="curve" smooth="yes"/>
			<point x="92" y="385"/>
			<point x="65" y="359"/>
			<point x="65" y="321" type="curve" smooth="yes"/>
			<point x="65" y="285"/>
			<point x="92" y="259"/>
		</contour>
	</outline>
</glyph>
